HIERARCHY
ROOT newVegas:Hips
{
	OFFSET 0.000000 96.479958 0.000000
	CHANNELS 6 Xposition Yposition Zposition Xrotation Yrotation Zrotation
	JOINT newVegas:Pelvis
	{
		OFFSET 0.000000 0.000000 0.000000
		CHANNELS 3 Xrotation Yrotation Zrotation
		JOINT newVegas:LeftUpLeg
		{
			OFFSET 18.735201 -5.666702 -4.541200
			CHANNELS 3 Xrotation Yrotation Zrotation
			JOINT newVegas:LeftLeg
			{
				OFFSET -0.021200 -31.938179 0.493100
				CHANNELS 3 Xrotation Yrotation Zrotation
				JOINT newVegas:LeftFoot
				{
					OFFSET 0.021200 -31.938179 -4.336299
					CHANNELS 3 Xrotation Yrotation Zrotation
					JOINT newVegas:LeftToeBase
					{
						OFFSET 0.943001 -26.722000 15.023500
						CHANNELS 3 Xrotation Yrotation Zrotation
						End Site
						{
							OFFSET 0.000000 30.670183 0.000000
						}
					}
				}
				JOINT newVegas:Left_PantLeg
				{
					OFFSET 0.663870 -9.044666 -1.108900
					CHANNELS 3 Xrotation Yrotation Zrotation
					End Site
					{
						OFFSET 1.415995 20.635357 0.000000
					}
				}
			}
		}
		JOINT newVegas:RightUpLeg
		{
			OFFSET -18.735201 -5.666702 -4.541200
			CHANNELS 3 Xrotation Yrotation Zrotation
			JOINT newVegas:RightLeg
			{
				OFFSET 0.018946 -31.938133 0.493100
				CHANNELS 3 Xrotation Yrotation Zrotation
				JOINT newVegas:RightFoot
				{
					OFFSET -0.018946 -31.938126 -4.336299
					CHANNELS 3 Xrotation Yrotation Zrotation
					JOINT newVegas:RightToeBase
					{
						OFFSET -0.943001 -26.722004 15.023500
						CHANNELS 3 Xrotation Yrotation Zrotation
						End Site
						{
							OFFSET 0.000000 30.670187 0.000000
						}
					}
				}
				JOINT newVegas:Right_PantLeg
				{
					OFFSET -0.661674 -9.044716 -1.108900
					CHANNELS 3 Xrotation Yrotation Zrotation
					End Site
					{
						OFFSET -1.415958 20.635269 0.000000
					}
				}
			}
		}
	}
	JOINT newVegas:Spine
	{
		OFFSET 0.000000 10.199997 -0.299500
		CHANNELS 3 Xrotation Yrotation Zrotation
		JOINT newVegas:Spine1
		{
			OFFSET 0.000000 11.900002 -1.516600
			CHANNELS 3 Xrotation Yrotation Zrotation
			JOINT newVegas:Spine2
			{
				OFFSET 0.000000 13.600006 -2.842500
				CHANNELS 3 Xrotation Yrotation Zrotation
				JOINT newVegas:Neck
				{
					OFFSET 0.000000 9.624100 -2.890100
					CHANNELS 3 Xrotation Yrotation Zrotation
					JOINT newVegas:Head
					{
						OFFSET 0.000000 14.068802 -1.351900
						CHANNELS 3 Xrotation Yrotation Zrotation
						JOINT newVegas:Hair_Back
						{
							OFFSET 0.000000 3.231903 -17.524799
							CHANNELS 3 Xrotation Yrotation Zrotation
							End Site
							{
								OFFSET 0.000000 19.849884 0.000000
							}
						}
						JOINT newVegas:Hair_Front
						{
							OFFSET 0.000000 31.260406 4.573800
							CHANNELS 3 Xrotation Yrotation Zrotation
							JOINT newVegas:Hair_Front1
							{
								OFFSET 0.000000 2.284103 11.993300
								CHANNELS 3 Xrotation Yrotation Zrotation
								JOINT newVegas:Hair_Front2
								{
									OFFSET 0.000000 2.284103 11.993300
									CHANNELS 3 Xrotation Yrotation Zrotation
									End Site
									{
										OFFSET 0.000000 12.208862 0.000000
									}
								}
							}
						}
						JOINT newVegas:Jowel
						{
							OFFSET 0.000000 -7.458206 6.864100
							CHANNELS 3 Xrotation Yrotation Zrotation
							End Site
							{
								OFFSET 0.000000 19.849884 0.000000
							}
						}
					}
				}
				JOINT newVegas:LeftShoulder
				{
					OFFSET 15.263000 10.923401 -0.547700
					CHANNELS 3 Xrotation Yrotation Zrotation
					JOINT newVegas:LeftArm
					{
						OFFSET 25.438599 -2.830597 -13.032500
						CHANNELS 3 Xrotation Yrotation Zrotation
						JOINT newVegas:LeftForeArm
						{
							OFFSET 29.960503 0.000000 0.000000
							CHANNELS 3 Xrotation Yrotation Zrotation
							JOINT newVegas:LeftHand
							{
								OFFSET 27.849251 0.000000 0.000000
								CHANNELS 3 Xrotation Yrotation Zrotation
								JOINT newVegas:LeftHandThumb1
								{
									OFFSET 4.487587 -3.305161 6.305391
									CHANNELS 3 Xrotation Yrotation Zrotation
									JOINT newVegas:LeftHandThumb2
									{
										OFFSET 5.480453 -3.164139 3.164143
										CHANNELS 3 Xrotation Yrotation Zrotation
										JOINT newVegas:LeftHandThumb3
										{
											OFFSET 5.159721 -2.978973 2.978967
											CHANNELS 3 Xrotation Yrotation Zrotation
											End Site
											{
												OFFSET 2.494507 5.926697 1.738678
											}
										}
									}
								}
								JOINT newVegas:LeftHandIndex1
								{
									OFFSET 18.578728 -0.527832 5.208049
									CHANNELS 3 Xrotation Yrotation Zrotation
									JOINT newVegas:LeftHandIndex2
									{
										OFFSET 3.192009 0.000000 0.000000
										CHANNELS 3 Xrotation Yrotation Zrotation
										JOINT newVegas:LeftHandIndex3
										{
											OFFSET 3.835129 0.000000 0.000000
											CHANNELS 3 Xrotation Yrotation Zrotation
											End Site
											{
												OFFSET -0.034599 3.816971 0.371180
											}
										}
									}
								}
								JOINT newVegas:LeftHandMiddle1
								{
									OFFSET 18.476105 0.000000 0.000000
									CHANNELS 3 Xrotation Yrotation Zrotation
									JOINT newVegas:LeftHandMiddle2
									{
										OFFSET 3.324875 0.000000 0.000000
										CHANNELS 3 Xrotation Yrotation Zrotation
										JOINT newVegas:LeftHandMiddle3
										{
											OFFSET 4.596550 0.000000 0.000000
											CHANNELS 3 Xrotation Yrotation Zrotation
											End Site
											{
												OFFSET 0.057701 4.578827 0.399218
											}
										}
									}
								}
								JOINT newVegas:LeftHandRing1
								{
									OFFSET 17.732719 0.121887 -4.201567
									CHANNELS 3 Xrotation Yrotation Zrotation
									JOINT newVegas:LeftHandRing2
									{
										OFFSET 2.733170 0.000000 0.000000
										CHANNELS 3 Xrotation Yrotation Zrotation
										JOINT newVegas:LeftHandRing3
										{
											OFFSET 3.178268 0.000000 0.000000
											CHANNELS 3 Xrotation Yrotation Zrotation
											End Site
											{
												OFFSET 0.119102 3.170624 0.185394
											}
										}
									}
								}
								JOINT newVegas:LeftHandPinky1
								{
									OFFSET 15.989624 -0.606689 -7.535461
									CHANNELS 3 Xrotation Yrotation Zrotation
									JOINT newVegas:LeftHandPinky2
									{
										OFFSET 2.538986 0.000000 0.000000
										CHANNELS 3 Xrotation Yrotation Zrotation
										JOINT newVegas:LeftHandPinky3
										{
											OFFSET 2.593102 0.000000 0.000000
											CHANNELS 3 Xrotation Yrotation Zrotation
											End Site
											{
												OFFSET -0.150902 2.584198 0.152708
											}
										}
									}
								}
							}
							JOINT newVegas:Left_Sleeve
							{
								OFFSET 0.267448 -0.649796 0.577675
								CHANNELS 3 Xrotation Yrotation Zrotation
								End Site
								{
									OFFSET 0.000000 15.991241 0.000000
								}
							}
							JOINT newVegas:Left_CapeC
							{
								OFFSET 15.715958 -8.608795 -6.935905
								CHANNELS 3 Xrotation Yrotation Zrotation
								JOINT newVegas:Left_CapeC1
								{
									OFFSET 0.000000 -8.688499 0.000000
									CHANNELS 3 Xrotation Yrotation Zrotation
									End Site
									{
										OFFSET 0.000000 8.688499 0.000000
									}
								}
							}
						}
						JOINT newVegas:Left_CapeB
						{
							OFFSET 26.118385 -8.608795 -7.079235
							CHANNELS 3 Xrotation Yrotation Zrotation
							JOINT newVegas:Left_CapeB1
							{
								OFFSET 0.000000 -8.688499 0.000000
								CHANNELS 3 Xrotation Yrotation Zrotation
								End Site
								{
									OFFSET 0.000000 8.688499 0.000000
								}
							}
						}
						JOINT newVegas:Left_CapeA
						{
							OFFSET 5.115639 -8.608795 -10.395809
							CHANNELS 3 Xrotation Yrotation Zrotation
							JOINT newVegas:Left_CapeA1
							{
								OFFSET 0.000000 -8.688499 0.000000
								CHANNELS 3 Xrotation Yrotation Zrotation
								End Site
								{
									OFFSET 0.000000 8.688499 0.000000
								}
							}
						}
					}
				}
				JOINT newVegas:RightShoulder
				{
					OFFSET -15.263000 10.923401 -0.547700
					CHANNELS 3 Xrotation Yrotation Zrotation
					JOINT newVegas:RightArm
					{
						OFFSET -25.438599 -2.830597 -13.032500
						CHANNELS 3 Xrotation Yrotation Zrotation
						JOINT newVegas:RightForeArm
						{
							OFFSET -29.960503 0.000000 0.000000
							CHANNELS 3 Xrotation Yrotation Zrotation
							JOINT newVegas:RightHand
							{
								OFFSET -27.849251 0.000000 0.000000
								CHANNELS 3 Xrotation Yrotation Zrotation
								JOINT newVegas:RightHandThumb1
								{
									OFFSET -4.487587 -3.305161 6.305391
									CHANNELS 3 Xrotation Yrotation Zrotation
									JOINT newVegas:RightHandThumb2
									{
										OFFSET -5.480453 -3.164139 3.164143
										CHANNELS 3 Xrotation Yrotation Zrotation
										JOINT newVegas:RightHandThumb3
										{
											OFFSET -5.159721 -2.978973 2.978967
											CHANNELS 3 Xrotation Yrotation Zrotation
											End Site
											{
												OFFSET -2.494507 5.926697 1.738678
											}
										}
									}
								}
								JOINT newVegas:RightHandIndex1
								{
									OFFSET -18.578728 -0.527832 5.208049
									CHANNELS 3 Xrotation Yrotation Zrotation
									JOINT newVegas:RightHandIndex2
									{
										OFFSET -3.192009 0.000000 0.000000
										CHANNELS 3 Xrotation Yrotation Zrotation
										JOINT newVegas:RightHandIndex3
										{
											OFFSET -3.835129 0.000000 0.000000
											CHANNELS 3 Xrotation Yrotation Zrotation
											End Site
											{
												OFFSET 0.034599 3.816971 0.371180
											}
										}
									}
								}
								JOINT newVegas:RightHandMiddle1
								{
									OFFSET -18.476105 0.000000 0.000000
									CHANNELS 3 Xrotation Yrotation Zrotation
									JOINT newVegas:RightHandMiddle2
									{
										OFFSET -3.324875 0.000000 0.000000
										CHANNELS 3 Xrotation Yrotation Zrotation
										JOINT newVegas:RightHandMiddle3
										{
											OFFSET -4.596550 0.000000 0.000000
											CHANNELS 3 Xrotation Yrotation Zrotation
											End Site
											{
												OFFSET -0.057701 4.578827 0.399218
											}
										}
									}
								}
								JOINT newVegas:RightHandRing1
								{
									OFFSET -17.732719 0.121887 -4.201567
									CHANNELS 3 Xrotation Yrotation Zrotation
									JOINT newVegas:RightHandRing2
									{
										OFFSET -2.733170 0.000000 0.000000
										CHANNELS 3 Xrotation Yrotation Zrotation
										JOINT newVegas:RightHandRing3
										{
											OFFSET -3.178268 0.000000 0.000000
											CHANNELS 3 Xrotation Yrotation Zrotation
											End Site
											{
												OFFSET -0.119102 3.170624 0.185394
											}
										}
									}
								}
								JOINT newVegas:RightHandPinky1
								{
									OFFSET -15.989624 -0.606689 -7.535461
									CHANNELS 3 Xrotation Yrotation Zrotation
									JOINT newVegas:RightHandPinky2
									{
										OFFSET -2.538986 0.000000 0.000000
										CHANNELS 3 Xrotation Yrotation Zrotation
										JOINT newVegas:RightHandPinky3
										{
											OFFSET -2.593102 0.000000 0.000000
											CHANNELS 3 Xrotation Yrotation Zrotation
											End Site
											{
												OFFSET 0.150902 2.584198 0.152708
											}
										}
									}
								}
							}
							JOINT newVegas:Right_CapeC
							{
								OFFSET -15.715958 -8.608795 -6.935905
								CHANNELS 3 Xrotation Yrotation Zrotation
								JOINT newVegas:Right_CapeC1
								{
									OFFSET 0.000000 -8.688499 0.000000
									CHANNELS 3 Xrotation Yrotation Zrotation
									End Site
									{
										OFFSET 0.000000 8.688499 0.000000
									}
								}
							}
							JOINT newVegas:Right_Sleeve
							{
								OFFSET -0.267448 -0.649994 0.577675
								CHANNELS 3 Xrotation Yrotation Zrotation
								End Site
								{
									OFFSET 0.000000 15.991302 0.000000
								}
							}
						}
						JOINT newVegas:Right_CapeA
						{
							OFFSET -5.115540 -8.608795 -10.395824
							CHANNELS 3 Xrotation Yrotation Zrotation
							JOINT newVegas:Right_CapeA1
							{
								OFFSET 0.000000 -8.688499 0.000000
								CHANNELS 3 Xrotation Yrotation Zrotation
								End Site
								{
									OFFSET 0.000000 8.688499 0.000000
								}
							}
						}
						JOINT newVegas:Right_CapeB
						{
							OFFSET -26.118187 -8.608795 -7.079266
							CHANNELS 3 Xrotation Yrotation Zrotation
							JOINT newVegas:Right_CapeB1
							{
								OFFSET 0.000000 -8.688499 0.000000
								CHANNELS 3 Xrotation Yrotation Zrotation
								End Site
								{
									OFFSET 0.000000 8.688499 0.000000
								}
							}
						}
					}
				}
				JOINT newVegas:Left_Collar
				{
					OFFSET 18.625099 8.655502 8.828100
					CHANNELS 3 Xrotation Yrotation Zrotation
					JOINT newVegas:Left_Collar1
					{
						OFFSET 14.783401 10.540405 -1.259500
						CHANNELS 3 Xrotation Yrotation Zrotation
						End Site
						{
							OFFSET 0.000000 18.199875 0.000000
						}
					}
				}
				JOINT newVegas:Collar_Back
				{
					OFFSET 0.000000 15.630707 -20.132601
					CHANNELS 3 Xrotation Yrotation Zrotation
					End Site
					{
						OFFSET 0.000000 22.523010 0.000000
					}
				}
				JOINT newVegas:Left_Peck
				{
					OFFSET 17.239599 -5.132599 25.482599
					CHANNELS 3 Xrotation Yrotation Zrotation
					End Site
					{
						OFFSET 0.000000 22.523010 0.000000
					}
				}
				JOINT newVegas:Right_Peck
				{
					OFFSET -17.239599 -5.132202 25.482599
					CHANNELS 3 Xrotation Yrotation Zrotation
					End Site
					{
						OFFSET 0.000000 22.523010 0.000000
					}
				}
				JOINT newVegas:Right_Collar
				{
					OFFSET -18.625099 8.655792 8.828100
					CHANNELS 3 Xrotation Yrotation Zrotation
					JOINT newVegas:Right_Collar1
					{
						OFFSET -14.783401 10.539993 -1.259500
						CHANNELS 3 Xrotation Yrotation Zrotation
						End Site
						{
							OFFSET 0.000000 18.199631 0.000000
						}
					}
				}
			}
		}
		JOINT newVegas:Belly
		{
			OFFSET 0.000000 -6.540398 9.014299
			CHANNELS 3 Xrotation Yrotation Zrotation
			End Site
			{
				OFFSET 0.000000 11.566666 0.000000
			}
		}
	}
	JOINT newVegas:ElvisFacialAnim_Joint
	{
		OFFSET 1.000000 -95.330101 -8.825800
		CHANNELS 3 Xrotation Yrotation Zrotation
		End Site
		{
			OFFSET 0.000000 35.315800 0.000000
		}
	}
}
MOTION
Frames: 4
Frame Time: 0.033333
0.048802 95.260811 4.396650 -3.755682 -5.231624 -3.181020 -0.000000 -0.000000 -0.000000 -14.965151 13.500119 12.523383 20.434912 1.790617 4.641406 -2.598433 1.108198 -9.508165 -0.000000 -0.000000 -0.000000 -0.000001 0.000000 -0.000000 4.375873 -10.103460 2.837642 4.849841 -9.672153 -3.266966 -4.768401 -1.890806 4.152270 -0.000000 0.000000 0.000000 0.000000 -0.000005 0.000000 3.303108 1.519338 2.144441 1.151890 0.336567 1.553486 1.126014 0.361145 1.556220 2.249492 -0.043289 0.186703 2.249529 -0.043289 0.186700 0.000000 -0.000000 -0.000000 2.249418 -0.043292 0.186703 2.249560 -0.043286 0.186700 -0.000000 0.000000 -0.000000 0.000000 -0.000000 -0.000000 1.049452 -17.442066 -12.319427 3.916258 -19.989257 -69.765253 -0.000004 -1.459357 0.000001 -33.230407 -1.364829 -6.186628 -0.663001 2.160317 4.832496 11.853548 25.421609 17.058298 0.000001 -0.000001 -0.000003 0.019861 -0.969580 -7.593536 0.268153 1.753797 -17.384998 0.000001 -0.000001 0.000000 -0.076307 2.665774 -15.696839 0.268784 1.755800 -17.405525 0.000000 -0.000001 -0.000002 0.136910 3.641766 -21.133548 0.386626 2.094786 -20.911891 -0.000001 -0.000000 -0.000005 0.927724 5.555935 -27.128048 0.268798 1.755829 -17.405894 0.000000 -0.000005 -0.000000 0.000001 0.000001 0.000000 0.000001 0.000001 0.000000 -0.000000 0.000001 0.000000 -0.000000 0.000000 -0.000000 -0.000000 0.000000 -0.000000 -0.000000 0.000000 -0.000000 -0.000002 0.000000 -0.000000 1.206080 15.344389 14.705954 13.158863 27.555123 58.785143 -0.000005 6.693731 -0.000003 -20.179089 -0.514087 6.782815 -1.665248 -0.174477 -4.219030 12.708541 -29.825367 -16.137693 0.000002 -0.000000 -0.000001 0.042120 1.262698 6.823909 0.213722 -1.396034 17.407005 0.000002 -0.000000 0.000000 -0.136222 -2.205105 14.998868 0.214431 -1.398299 17.436397 -0.000002 0.000001 0.000001 0.030610 -3.075761 20.451000 0.308451 -1.668270 20.948564 -0.000000 -0.000001 -0.000002 0.748882 -4.885252 26.473748 0.214453 -1.398364 17.437251 0.000002 0.000001 0.000003 -0.000001 -0.000000 0.000001 -0.000001 -0.000000 0.000001 -0.000001 -0.000000 0.000001 -0.000003 -0.000001 -0.000000 -0.000003 -0.000001 -0.000000 -0.000003 -0.000001 -0.000000 -0.000003 -0.000001 -0.000000 0.000000 -0.000000 -0.000000 0.000000 -0.000000 -0.000000 0.000000 -0.000000 -0.000000 0.000000 -0.000000 -0.000000 0.000000 -0.000000 -0.000000 0.000000 -0.000000 -0.000000 0.000000 -0.000000 -0.000000 0.000000 0.000000 0.000000 -0.000000 -0.000000 -0.000000 
0.050047 95.261902 4.389956 -3.755785 -5.249066 -3.182692 0.000000 0.000000 0.000000 -14.956492 13.500580 12.529016 20.405568 1.807586 4.637551 -2.575531 1.107847 -9.528626 -0.000000 0.000001 0.000000 -0.000000 0.000001 -0.000000 4.362990 -10.105277 2.846201 4.849353 -9.664406 -3.280601 -4.757028 -1.891362 4.152864 0.000000 -0.000000 -0.000000 -0.000000 -0.000002 -0.000000 3.303095 1.519310 2.144961 1.134997 0.336566 1.553487 1.108870 0.361147 1.556220 2.249495 -0.043289 0.186703 2.249493 -0.043287 0.186701 0.000000 0.000000 0.000000 2.249492 -0.043287 0.186702 2.249488 -0.043288 0.186702 -0.000001 0.000000 -0.000000 0.000000 0.000000 0.000000 1.047970 -17.491676 -12.338059 4.216179 -20.442584 -69.444391 0.000003 -1.740653 -0.000024 -33.608376 -1.471159 -6.213351 -1.039890 1.764929 4.725552 11.676420 25.060678 17.167223 0.000003 -0.000003 -0.000001 0.007137 -1.159893 -7.043516 0.268153 1.753797 -17.384968 0.000001 0.000000 -0.000001 -0.096170 2.539867 -15.102633 0.269124 1.756880 -17.416595 -0.000000 -0.000000 -0.000001 0.074343 3.449969 -20.557577 0.387057 2.095912 -20.923680 0.000000 -0.000001 0.000004 0.838719 5.424436 -26.709352 0.269534 1.758175 -17.429835 -0.000001 -0.000005 -0.000000 0.000002 -0.000000 -0.000001 0.000002 -0.000000 -0.000001 0.000002 0.000000 -0.000001 0.000000 -0.000001 -0.000000 0.000000 -0.000001 -0.000001 0.000000 -0.000001 -0.000000 -0.000001 0.000000 -0.000001 1.210617 15.352655 14.680412 13.461525 28.156724 58.183738 0.000008 7.104289 0.000003 -20.553989 -0.732106 6.918630 -1.715204 -0.079471 -4.167518 12.683789 -29.779082 -16.134792 0.000003 -0.000000 -0.000000 0.055044 1.293181 6.594652 0.214005 -1.396943 17.418734 -0.000001 0.000001 0.000002 -0.147608 -2.126958 14.622491 0.214441 -1.398306 17.436380 0.000002 -0.000000 -0.000001 0.034601 -3.074544 20.179010 0.306117 -1.662165 20.868123 -0.000001 -0.000001 0.000002 0.668928 -4.759744 26.053813 0.212994 -1.393693 17.377111 0.000000 0.000001 0.000001 -0.000001 0.000001 -0.000000 -0.000001 0.000000 -0.000000 -0.000001 0.000001 0.000000 -0.000001 0.000000 0.000001 -0.000001 0.000000 0.000001 -0.000001 0.000000 0.000001 -0.000001 -0.000000 0.000001 -0.000000 -0.000000 0.000000 -0.000000 -0.000000 0.000000 -0.000000 -0.000000 0.000000 -0.000000 -0.000000 0.000000 -0.000000 -0.000000 0.000000 -0.000000 -0.000000 0.000000 -0.000000 -0.000000 0.000000 0.000000 0.000000 -0.000000 0.000000 0.000000 0.000000 
0.049949 95.262024 4.374942 -3.756095 -5.300347 -3.186183 -0.000000 -0.000000 0.000000 -14.945793 13.500755 12.546562 20.385635 1.854930 4.621993 -2.560315 1.108301 -9.547492 -0.000000 -0.000001 -0.000000 -0.000000 -0.000001 -0.000000 4.308591 -10.099247 2.845754 4.897734 -9.629768 -3.287711 -4.754527 -1.890504 4.147331 -0.000000 0.000002 0.000000 -0.000000 -0.000002 -0.000000 3.303088 1.517763 2.145073 1.116574 0.333699 1.553487 1.090266 0.360558 1.556220 2.249546 -0.043288 0.186706 2.249550 -0.043289 0.186707 0.000001 0.000000 -0.000000 2.249548 -0.043289 0.186706 2.249546 -0.043287 0.186706 -0.000002 -0.000000 -0.000000 0.000001 0.000000 -0.000000 1.050241 -17.527785 -12.335375 4.634018 -21.047537 -69.025782 -0.000008 -2.229709 -0.000005 -34.214982 -1.715032 -6.376329 -1.845214 0.955681 4.486112 11.218628 24.106673 17.444829 0.000003 -0.000002 -0.000003 -0.022183 -1.517196 -6.153949 0.268154 1.753802 -17.384986 0.000002 0.000001 0.000002 -0.155992 2.222636 -14.270720 0.269754 1.758884 -17.437101 -0.000000 -0.000001 -0.000002 -0.032576 3.105193 -19.682522 0.388381 2.099378 -20.959918 0.000001 -0.000000 -0.000005 0.666343 5.161022 -25.988979 0.270126 1.760083 -17.449330 -0.000002 -0.000002 -0.000001 -0.000002 0.000000 -0.000001 -0.000002 0.000000 -0.000001 -0.000003 0.000001 -0.000001 -0.000002 0.000000 -0.000000 -0.000002 0.000000 -0.000001 -0.000002 0.000000 -0.000000 -0.000004 0.000000 -0.000000 1.221004 15.416808 14.614016 13.491120 28.586063 57.591977 0.000007 7.795352 0.000005 -21.125095 -0.938097 7.238406 -1.786818 0.056218 -4.101994 12.692987 -29.809319 -16.133064 0.000003 0.000001 -0.000000 0.067203 1.290155 6.428487 0.215629 -1.402111 17.485402 -0.000000 0.000001 0.000000 -0.152833 -2.077065 14.318974 0.214444 -1.398304 17.436387 0.000001 -0.000001 -0.000001 0.044645 -3.096271 20.046320 0.304391 -1.657634 20.808622 -0.000002 0.000000 0.000005 0.587730 -4.629331 25.766735 0.213366 -1.394883 17.392395 0.000001 0.000000 -0.000003 -0.000001 0.000000 -0.000000 -0.000001 -0.000000 -0.000000 -0.000001 -0.000000 -0.000000 0.000002 0.000000 -0.000000 0.000002 -0.000001 -0.000000 0.000002 0.000000 -0.000000 0.000002 -0.000001 -0.000000 0.000000 -0.000000 0.000000 0.000000 -0.000000 0.000000 0.000000 -0.000000 0.000000 0.000000 -0.000000 0.000000 0.000000 -0.000000 0.000000 0.000000 -0.000000 0.000000 0.000000 -0.000000 0.000000 0.000000 -0.000000 -0.000000 -0.000000 -0.000000 0.000000 
0.048504 95.262062 4.349240 -3.756590 -5.380096 -3.191129 0.000000 0.000001 -0.000000 -14.927652 13.496357 12.562938 20.380132 1.932030 4.606004 -2.562891 1.111361 -9.561595 0.000000 -0.000001 -0.000000 0.000000 -0.000001 0.000000 4.232057 -10.089939 2.834973 4.969458 -9.574198 -3.286350 -4.753275 -1.888600 4.137845 -0.000000 0.000000 -0.000000 0.000000 0.000000 -0.000001 3.303085 1.514421 2.144761 1.097767 0.326816 1.544473 1.071338 0.355391 1.546683 2.249544 -0.043337 0.188430 2.249549 -0.043336 0.188431 -0.000000 0.000000 -0.000000 2.249540 -0.043338 0.188431 2.249542 -0.043330 0.188430 -0.000000 -0.000000 -0.000000 -0.000000 0.000000 -0.000000 1.051836 -17.560672 -12.327287 5.098504 -21.674260 -68.501272 0.000004 -2.999784 0.000004 -34.969179 -2.251599 -6.784786 -2.988398 -0.133234 4.164987 10.559769 22.678219 17.840948 -0.000002 -0.000001 -0.000001 -0.061843 -2.028125 -5.027667 0.268155 1.753798 -17.384993 -0.000000 0.000001 0.000003 -0.255859 1.679724 -13.314101 0.270350 1.760791 -17.456594 0.000001 0.000001 -0.000002 -0.160093 2.644932 -18.544853 0.390173 2.104045 -21.008755 -0.000000 -0.000002 -0.000002 0.437004 4.789260 -24.998204 0.270624 1.761660 -17.465492 0.000001 -0.000003 -0.000000 -0.000001 -0.000000 0.000000 -0.000001 -0.000000 0.000000 -0.000002 -0.000000 0.000000 -0.000001 0.000000 0.000000 -0.000001 0.000000 0.000000 -0.000001 0.000000 0.000000 -0.000002 0.000001 -0.000000 1.240868 15.549021 14.499095 13.092317 28.754096 57.080099 0.000002 8.896670 0.000006 -21.830512 -0.940666 7.633090 -1.859838 0.199726 -4.073427 12.759973 -29.953064 -16.117797 -0.000002 -0.000003 0.000001 0.086809 1.255855 6.273663 0.218153 -1.410071 17.587891 0.000003 -0.000001 -0.000004 -0.158771 -2.019557 13.986006 0.214435 -1.398309 17.436384 0.000000 0.000001 0.000001 0.062134 -3.139819 19.934773 0.302594 -1.652905 20.746490 -0.000001 -0.000001 0.000001 0.499945 -4.484964 25.433493 0.214646 -1.398953 17.444836 -0.000001 0.000003 0.000002 -0.000005 0.000001 -0.000000 -0.000005 -0.000000 0.000000 -0.000005 0.000001 -0.000000 0.000000 0.000000 -0.000001 0.000001 0.000000 -0.000000 0.000000 0.000000 -0.000001 0.000001 -0.000000 -0.000000 -0.000000 -0.000000 0.000000 -0.000000 -0.000000 0.000000 -0.000000 -0.000000 0.000000 -0.000000 -0.000000 0.000000 -0.000000 -0.000000 0.000000 -0.000000 -0.000000 0.000000 -0.000000 -0.000000 0.000000 0.000000 0.000000 -0.000000 0.000000 0.000001 -0.000000 
